<svg xmlns="http://www.w3.org/2000/svg" xmlns:xlink="http://www.w3.org/1999/xlink" version="1.1" enable-background="new 0 0 1000 1000" xml:space="preserve" width="1000" height="1000" style=""><rect id="backgroundrect" width="100%" height="100%" x="0" y="0" fill="none" stroke="none"/>
<metadata> Svg Vector Icons : http://www.onlinewebfonts.com/icon </metadata>

<g class="currentLayer" style=""><title>Layer 1</title><g id="svg_1" class="selected" fill="#ffffff" fill-opacity="1"><g transform="translate(0,511) scale(0.10000000149011612,-0.10000000149011612) " id="svg_2" fill="#ffffff" fill-opacity="1"><path d="M6520.4,4969.1c-435.9-92.1-794.1-319.3-1062.2-675.4c-225.1-298.8-390.9-699.9-462.5-1113.4c-18.4-106.4-30.7-304.9-30.7-478.9v-296.8l354.1,12.3c403.2,12.3,575.1,49.1,845.3,178.1c585.3,282.4,1006.9,906.6,1113.4,1647.5c10.2,79.8,20.5,284.5,20.5,456.4V5010l-300.9-2.1C6786.5,5007.9,6641.2,4995.7,6520.4,4969.1z M6622.8,4277.3c0-30.7-14.3-112.6-30.7-178.1c-86-337.7-362.3-716.3-650.8-898.5c-65.5-40.9-282.4-118.7-294.7-106.4c-14.3,14.3,53.2,274.2,110.5,413.4c71.6,180.1,262,464.6,390.9,585.3c106.4,98.2,225.1,169.9,362.3,212.8C6622.8,4340.7,6622.8,4340.7,6622.8,4277.3z" id="svg_3" fill="#ffffff" fill-opacity="1"/><path d="M6469.3,2429.2c-210.8-20.5-489.1-86-798.2-182.1c-360.2-112.6-548.5-151.4-683.6-137.1c-63.5,8.2-251.7,51.2-421.6,96.2c-859.6,235.4-1291.4,262-1780.5,108.5c-335.6-106.4-589.4-259.9-863.7-526c-787.9-757.3-1076.5-2077.3-751.1-3438.3c282.4-1178.8,1009-2396.6,1708.9-2863.2c200.6-133,319.3-188.3,528-241.5c272.2-69.6,546.4-38.9,951.7,106.4c693.8,251.7,794.1,253.8,1442.9,38.9c699.9-233.3,961.9-237.4,1385.5-24.6c661.1,333.6,1399.9,1381.5,1717.1,2435.5c36.8,126.9,61.4,233.3,55.3,237.4c-8.2,4.1-92.1,32.7-188.3,63.4c-245.6,79.8-309,116.7-470.7,268.1c-249.7,235.4-401.1,472.8-495.3,765.4c-40.9,133-47.1,194.4-47.1,460.5c2,280.4,6.1,321.3,59.4,470.7c63.4,186.3,174,384.8,304.9,544.4c65.5,81.9,585.3,569,667.2,626.3c16.4,10.2-294.7,358.2-485,542.4c-323.4,309-614,478.9-990.6,579.2c-167.8,43-552.6,96.2-648.8,90C6647.3,2447.6,6559.3,2439.4,6469.3,2429.2z M6888.8,1776.4c192.4-20.5,399.1-75.7,521.9-137.1c96.2-51.2,294.7-188.3,382.7-268.1l77.8-69.6l-131-139.2c-341.8-364.3-532.1-738.8-616-1215.7c-94.1-540.3,45-1166.6,360.2-1631.1c114.6-167.8,380.7-446.2,544.4-566.9c104.4-75.7,126.9-102.3,116.7-135.1c-34.8-124.8-282.5-581.2-458.4-845.3c-323.4-487.1-534.2-712.2-794.1-839.1c-102.3-51.2-139.2-57.3-300.8-57.3c-169.9,2-210.8,10.2-552.6,126.9c-472.8,161.7-638.5,196.5-921,196.5c-249.7,0-438-34.8-706.1-131c-513.7-184.2-534.2-190.4-728.6-190.4c-174-2-192.4,2.1-345.9,77.8c-345.9,171.9-736.8,665.2-1107.2,1404c-390.9,781.8-562.8,1500.2-534.2,2220.6c32.8,761.3,251.8,1326.2,685.6,1758c284.5,282.4,538.3,397,927.1,415.5c266.1,14.3,452.3-12.3,861.6-118.7c474.8-122.8,761.3-182.1,888.2-182.1c157.6,0,454.3,63.4,802.3,171.9c290.6,90,530.1,147.4,689.7,161.7c45,4.1,96.2,8.2,112.6,10.2C6680.1,1794.8,6782.4,1786.6,6888.8,1776.4z" id="svg_4" fill="#ffffff" fill-opacity="1"/></g></g></g></svg>